<?xml version="1.0" encoding="UTF-8" standalone="no"?>
<!DOCTYPE svg PUBLIC "-//W3C//DTD SVG 1.1//EN"
 "http://www.w3.org/Graphics/SVG/1.1/DTD/svg11.dtd">
<!-- Generated by graphviz version 2.50.0 (20211204.2007)
 -->
<!-- Title: packages Pages: 1 -->
<svg width="2354pt" height="260pt"
 viewBox="0.00 0.00 2354.00 260.00" xmlns="http://www.w3.org/2000/svg" xmlns:xlink="http://www.w3.org/1999/xlink">
<g id="graph0" class="graph" transform="scale(1 1) rotate(0) translate(4 256)">
<title>packages</title>
<polygon fill="white" stroke="transparent" points="-4,4 -4,-256 2350,-256 2350,4 -4,4"/>
<!-- dash_charts -->
<g id="node1" class="node">
<title>dash_charts</title>
<polygon fill="none" stroke="black" points="80,-36 0,-36 0,0 80,0 80,-36"/>
<text text-anchor="middle" x="40" y="-14.3" font-family="Times,serif" font-size="14.00">dash_charts</text>
</g>
<!-- dash_charts.app_px -->
<g id="node2" class="node">
<title>dash_charts.app_px</title>
<polygon fill="none" stroke="black" points="222,-36 98,-36 98,0 222,0 222,-36"/>
<text text-anchor="middle" x="160" y="-14.3" font-family="Times,serif" font-size="14.00">dash_charts.app_px</text>
</g>
<!-- dash_charts.components -->
<g id="node3" class="node">
<title>dash_charts.components</title>
<polygon fill="none" stroke="black" points="480,-108 330,-108 330,-72 480,-72 480,-108"/>
<text text-anchor="middle" x="405" y="-86.3" font-family="Times,serif" font-size="14.00">dash_charts.components</text>
</g>
<!-- dash_charts.app_px&#45;&gt;dash_charts.components -->
<g id="edge1" class="edge">
<title>dash_charts.app_px&#45;&gt;dash_charts.components</title>
<path fill="none" stroke="black" d="M219.62,-36.03C254.45,-45.99 298.58,-58.59 335.04,-69.01"/>
<polygon fill="black" stroke="black" points="345.11,-71.89 334.26,-73.47 340.3,-70.52 335.5,-69.14 335.5,-69.14 335.5,-69.14 340.3,-70.52 336.73,-64.82 345.11,-71.89 345.11,-71.89"/>
</g>
<!-- dash_charts.utils_app -->
<g id="node14" class="node">
<title>dash_charts.utils_app</title>
<polygon fill="none" stroke="black" points="227,-180 93,-180 93,-144 227,-144 227,-180"/>
<text text-anchor="middle" x="160" y="-158.3" font-family="Times,serif" font-size="14.00">dash_charts.utils_app</text>
</g>
<!-- dash_charts.app_px&#45;&gt;dash_charts.utils_app -->
<g id="edge2" class="edge">
<title>dash_charts.app_px&#45;&gt;dash_charts.utils_app</title>
<path fill="none" stroke="black" d="M104.97,-36.06C76.17,-46.21 45.21,-59.52 37,-72 28.21,-85.37 28.21,-94.63 37,-108 47.93,-124.62 65.3,-136.05 83.57,-143.9"/>
<polygon fill="black" stroke="black" points="92.88,-147.58 81.93,-148.09 88.23,-145.74 83.58,-143.91 83.58,-143.91 83.58,-143.91 88.23,-145.74 85.24,-139.72 92.88,-147.58 92.88,-147.58"/>
</g>
<!-- dash_charts.utils_app_with_navigation -->
<g id="node16" class="node">
<title>dash_charts.utils_app_with_navigation</title>
<polygon fill="none" stroke="black" points="274,-108 46,-108 46,-72 274,-72 274,-108"/>
<text text-anchor="middle" x="160" y="-86.3" font-family="Times,serif" font-size="14.00">dash_charts.utils_app_with_navigation</text>
</g>
<!-- dash_charts.app_px&#45;&gt;dash_charts.utils_app_with_navigation -->
<g id="edge3" class="edge">
<title>dash_charts.app_px&#45;&gt;dash_charts.utils_app_with_navigation</title>
<path fill="none" stroke="black" d="M160,-36.3C160,-44.02 160,-53.29 160,-61.89"/>
<polygon fill="black" stroke="black" points="160,-71.9 155.5,-61.9 160,-66.9 160,-61.9 160,-61.9 160,-61.9 160,-66.9 164.5,-61.9 160,-71.9 160,-71.9"/>
</g>
<!-- dash_charts.utils_callbacks -->
<g id="node17" class="node">
<title>dash_charts.utils_callbacks</title>
<polygon fill="none" stroke="black" points="416,-252 252,-252 252,-216 416,-216 416,-252"/>
<text text-anchor="middle" x="334" y="-230.3" font-family="Times,serif" font-size="14.00">dash_charts.utils_callbacks</text>
</g>
<!-- dash_charts.app_px&#45;&gt;dash_charts.utils_callbacks -->
<g id="edge4" class="edge">
<title>dash_charts.app_px&#45;&gt;dash_charts.utils_callbacks</title>
<path fill="none" stroke="black" d="M98.74,-36.09C68.14,-46 35.79,-59.04 27,-72 18.02,-85.24 21.74,-92.89 27,-108 40.41,-146.55 49.31,-158.49 84,-180 131.18,-209.26 191.97,-222.57 241.79,-228.55"/>
<polygon fill="black" stroke="black" points="251.92,-229.68 241.48,-233.04 246.95,-229.12 241.98,-228.57 241.98,-228.57 241.98,-228.57 246.95,-229.12 242.48,-224.1 251.92,-229.68 251.92,-229.68"/>
</g>
<!-- dash_charts.utils_fig -->
<g id="node20" class="node">
<title>dash_charts.utils_fig</title>
<polygon fill="none" stroke="black" points="1429,-180 1301,-180 1301,-144 1429,-144 1429,-180"/>
<text text-anchor="middle" x="1365" y="-158.3" font-family="Times,serif" font-size="14.00">dash_charts.utils_fig</text>
</g>
<!-- dash_charts.app_px&#45;&gt;dash_charts.utils_fig -->
<g id="edge5" class="edge">
<title>dash_charts.app_px&#45;&gt;dash_charts.utils_fig</title>
<path fill="none" stroke="black" d="M210.22,-36.02C233.35,-44.99 260.57,-57.22 283,-72 302.43,-84.8 299.61,-98.84 321,-108 409.37,-145.84 1066.66,-157.35 1290.56,-160.19"/>
<polygon fill="black" stroke="black" points="1300.89,-160.32 1290.83,-164.7 1295.89,-160.26 1290.89,-160.2 1290.89,-160.2 1290.89,-160.2 1295.89,-160.26 1290.94,-155.7 1300.89,-160.32 1300.89,-160.32"/>
</g>
<!-- dash_charts.coordinate_chart -->
<g id="node4" class="node">
<title>dash_charts.coordinate_chart</title>
<polygon fill="none" stroke="black" points="1452.5,-108 1277.5,-108 1277.5,-72 1452.5,-72 1452.5,-108"/>
<text text-anchor="middle" x="1365" y="-86.3" font-family="Times,serif" font-size="14.00">dash_charts.coordinate_chart</text>
</g>
<!-- dash_charts.coordinate_chart&#45;&gt;dash_charts.utils_fig -->
<g id="edge6" class="edge">
<title>dash_charts.coordinate_chart&#45;&gt;dash_charts.utils_fig</title>
<path fill="none" stroke="black" d="M1365,-108.3C1365,-116.02 1365,-125.29 1365,-133.89"/>
<polygon fill="black" stroke="black" points="1365,-143.9 1360.5,-133.9 1365,-138.9 1365,-133.9 1365,-133.9 1365,-133.9 1365,-138.9 1369.5,-133.9 1365,-143.9 1365,-143.9"/>
</g>
<!-- dash_charts.custom_colorscales -->
<g id="node5" class="node">
<title>dash_charts.custom_colorscales</title>
<polygon fill="none" stroke="black" points="1674.5,-36 1483.5,-36 1483.5,0 1674.5,0 1674.5,-36"/>
<text text-anchor="middle" x="1579" y="-14.3" font-family="Times,serif" font-size="14.00">dash_charts.custom_colorscales</text>
</g>
<!-- dash_charts.datatable -->
<g id="node6" class="node">
<title>dash_charts.datatable</title>
<polygon fill="none" stroke="black" points="669.5,-108 536.5,-108 536.5,-72 669.5,-72 669.5,-108"/>
<text text-anchor="middle" x="603" y="-86.3" font-family="Times,serif" font-size="14.00">dash_charts.datatable</text>
</g>
<!-- dash_charts.equations -->
<g id="node7" class="node">
<title>dash_charts.equations</title>
<polygon fill="none" stroke="black" points="1829,-36 1693,-36 1693,0 1829,0 1829,-36"/>
<text text-anchor="middle" x="1761" y="-14.3" font-family="Times,serif" font-size="14.00">dash_charts.equations</text>
</g>
<!-- dash_charts.gantt_chart -->
<g id="node8" class="node">
<title>dash_charts.gantt_chart</title>
<polygon fill="none" stroke="black" points="1259.5,-108 1114.5,-108 1114.5,-72 1259.5,-72 1259.5,-108"/>
<text text-anchor="middle" x="1187" y="-86.3" font-family="Times,serif" font-size="14.00">dash_charts.gantt_chart</text>
</g>
<!-- dash_charts.utils_data -->
<g id="node18" class="node">
<title>dash_charts.utils_data</title>
<polygon fill="none" stroke="black" points="1552.5,-252 1415.5,-252 1415.5,-216 1552.5,-216 1552.5,-252"/>
<text text-anchor="middle" x="1484" y="-230.3" font-family="Times,serif" font-size="14.00">dash_charts.utils_data</text>
</g>
<!-- dash_charts.gantt_chart&#45;&gt;dash_charts.utils_data -->
<g id="edge7" class="edge">
<title>dash_charts.gantt_chart&#45;&gt;dash_charts.utils_data</title>
<path fill="none" stroke="black" d="M1202.77,-108.31C1221.97,-128.39 1256.3,-161.13 1292,-180 1327.07,-198.54 1369.26,-211.1 1405.15,-219.33"/>
<polygon fill="black" stroke="black" points="1415.1,-221.53 1404.36,-223.76 1410.22,-220.45 1405.34,-219.37 1405.34,-219.37 1405.34,-219.37 1410.22,-220.45 1406.31,-214.97 1415.1,-221.53 1415.1,-221.53"/>
</g>
<!-- dash_charts.gantt_chart&#45;&gt;dash_charts.utils_fig -->
<g id="edge8" class="edge">
<title>dash_charts.gantt_chart&#45;&gt;dash_charts.utils_fig</title>
<path fill="none" stroke="black" d="M1230.54,-108.12C1255.2,-117.82 1286.22,-130.02 1312.25,-140.26"/>
<polygon fill="black" stroke="black" points="1321.6,-143.93 1310.64,-144.46 1316.94,-142.1 1312.29,-140.27 1312.29,-140.27 1312.29,-140.27 1316.94,-142.1 1313.94,-136.08 1321.6,-143.93 1321.6,-143.93"/>
</g>
<!-- dash_charts.modules_datatable -->
<g id="node9" class="node">
<title>dash_charts.modules_datatable</title>
<polygon fill="none" stroke="black" points="648,-36 462,-36 462,0 648,0 648,-36"/>
<text text-anchor="middle" x="555" y="-14.3" font-family="Times,serif" font-size="14.00">dash_charts.modules_datatable</text>
</g>
<!-- dash_charts.modules_datatable&#45;&gt;dash_charts.components -->
<g id="edge9" class="edge">
<title>dash_charts.modules_datatable&#45;&gt;dash_charts.components</title>
<path fill="none" stroke="black" d="M518.31,-36.12C497.98,-45.61 472.53,-57.49 450.9,-67.58"/>
<polygon fill="black" stroke="black" points="441.57,-71.93 448.73,-63.62 446.11,-69.82 450.64,-67.7 450.64,-67.7 450.64,-67.7 446.11,-69.82 452.54,-71.78 441.57,-71.93 441.57,-71.93"/>
</g>
<!-- dash_charts.modules_datatable&#45;&gt;dash_charts.datatable -->
<g id="edge10" class="edge">
<title>dash_charts.modules_datatable&#45;&gt;dash_charts.datatable</title>
<path fill="none" stroke="black" d="M566.87,-36.3C572.5,-44.53 579.35,-54.52 585.57,-63.58"/>
<polygon fill="black" stroke="black" points="591.27,-71.9 581.9,-66.19 588.44,-67.77 585.62,-63.65 585.62,-63.65 585.62,-63.65 588.44,-67.77 589.33,-61.1 591.27,-71.9 591.27,-71.9"/>
</g>
<!-- dash_charts.utils_app_modules -->
<g id="node15" class="node">
<title>dash_charts.utils_app_modules</title>
<polygon fill="none" stroke="black" points="874.5,-108 687.5,-108 687.5,-72 874.5,-72 874.5,-108"/>
<text text-anchor="middle" x="781" y="-86.3" font-family="Times,serif" font-size="14.00">dash_charts.utils_app_modules</text>
</g>
<!-- dash_charts.modules_datatable&#45;&gt;dash_charts.utils_app_modules -->
<g id="edge11" class="edge">
<title>dash_charts.modules_datatable&#45;&gt;dash_charts.utils_app_modules</title>
<path fill="none" stroke="black" d="M610,-36.03C641.99,-45.94 682.48,-58.49 716.04,-68.88"/>
<polygon fill="black" stroke="black" points="725.76,-71.89 714.87,-73.23 720.98,-70.41 716.2,-68.93 716.2,-68.93 716.2,-68.93 720.98,-70.41 717.54,-64.63 725.76,-71.89 725.76,-71.89"/>
</g>
<!-- dash_charts.modules_datatable&#45;&gt;dash_charts.utils_callbacks -->
<g id="edge12" class="edge">
<title>dash_charts.modules_datatable&#45;&gt;dash_charts.utils_callbacks</title>
<path fill="none" stroke="black" d="M544.24,-36.06C532.05,-54.75 510.98,-85.11 489,-108 450.87,-147.71 400.19,-186.4 367.33,-209.96"/>
<polygon fill="black" stroke="black" points="358.97,-215.9 364.52,-206.44 363.05,-213 367.12,-210.11 367.12,-210.11 367.12,-210.11 363.05,-213 369.73,-213.77 358.97,-215.9 358.97,-215.9"/>
</g>
<!-- dash_charts.modules_upload -->
<g id="node10" class="node">
<title>dash_charts.modules_upload</title>
<polygon fill="none" stroke="black" points="1465,-36 1291,-36 1291,0 1465,0 1465,-36"/>
<text text-anchor="middle" x="1378" y="-14.3" font-family="Times,serif" font-size="14.00">dash_charts.modules_upload</text>
</g>
<!-- dash_charts.modules_upload&#45;&gt;dash_charts.utils_app_modules -->
<g id="edge13" class="edge">
<title>dash_charts.modules_upload&#45;&gt;dash_charts.utils_app_modules</title>
<path fill="none" stroke="black" d="M1290.84,-27.17C1192.92,-36.64 1029.31,-53.36 889,-72 887.53,-72.2 886.05,-72.39 884.56,-72.6"/>
<polygon fill="black" stroke="black" points="874.62,-73.98 883.91,-68.14 879.57,-73.29 884.53,-72.6 884.53,-72.6 884.53,-72.6 879.57,-73.29 885.15,-77.06 874.62,-73.98 874.62,-73.98"/>
</g>
<!-- dash_charts.modules_upload&#45;&gt;dash_charts.utils_callbacks -->
<g id="edge14" class="edge">
<title>dash_charts.modules_upload&#45;&gt;dash_charts.utils_callbacks</title>
<path fill="none" stroke="black" d="M1290.91,-22.72C1177.37,-28.65 985.73,-42.73 922,-72 900.56,-81.85 903.87,-97.01 883,-108 735.02,-185.92 539.63,-215.52 426.29,-226.58"/>
<polygon fill="black" stroke="black" points="416.26,-227.53 425.79,-222.11 421.24,-227.06 426.21,-226.59 426.21,-226.59 426.21,-226.59 421.24,-227.06 426.64,-231.07 416.26,-227.53 416.26,-227.53"/>
</g>
<!-- dash_charts.utils_dataset -->
<g id="node19" class="node">
<title>dash_charts.utils_dataset</title>
<polygon fill="none" stroke="black" points="1930,-180 1778,-180 1778,-144 1930,-144 1930,-180"/>
<text text-anchor="middle" x="1854" y="-158.3" font-family="Times,serif" font-size="14.00">dash_charts.utils_dataset</text>
</g>
<!-- dash_charts.modules_upload&#45;&gt;dash_charts.utils_dataset -->
<g id="edge15" class="edge">
<title>dash_charts.modules_upload&#45;&gt;dash_charts.utils_dataset</title>
<path fill="none" stroke="black" d="M1465.08,-34.72C1468.08,-35.16 1471.07,-35.59 1474,-36 1553.86,-47.04 1774.92,-18.24 1835,-72 1851.97,-87.18 1855.85,-113.47 1856.01,-133.55"/>
<polygon fill="black" stroke="black" points="1855.78,-143.68 1851.51,-133.58 1855.89,-138.68 1856.01,-133.68 1856.01,-133.68 1856.01,-133.68 1855.89,-138.68 1860.5,-133.78 1855.78,-143.68 1855.78,-143.68"/>
</g>
<!-- dash_charts.utils_json_cache -->
<g id="node22" class="node">
<title>dash_charts.utils_json_cache</title>
<polygon fill="none" stroke="black" points="2056,-108 1882,-108 1882,-72 2056,-72 2056,-108"/>
<text text-anchor="middle" x="1969" y="-86.3" font-family="Times,serif" font-size="14.00">dash_charts.utils_json_cache</text>
</g>
<!-- dash_charts.modules_upload&#45;&gt;dash_charts.utils_json_cache -->
<g id="edge16" class="edge">
<title>dash_charts.modules_upload&#45;&gt;dash_charts.utils_json_cache</title>
<path fill="none" stroke="black" d="M1465.07,-34.75C1468.08,-35.19 1471.06,-35.61 1474,-36 1648.28,-59.35 1693.62,-49.39 1868,-72 1869.26,-72.16 1870.54,-72.33 1871.82,-72.5"/>
<polygon fill="black" stroke="black" points="1881.74,-73.89 1871.22,-76.96 1876.79,-73.2 1871.84,-72.51 1871.84,-72.51 1871.84,-72.51 1876.79,-73.2 1872.46,-68.05 1881.74,-73.89 1881.74,-73.89"/>
</g>
<!-- dash_charts.pareto_chart -->
<g id="node11" class="node">
<title>dash_charts.pareto_chart</title>
<polygon fill="none" stroke="black" points="1826,-108 1674,-108 1674,-72 1826,-72 1826,-108"/>
<text text-anchor="middle" x="1750" y="-86.3" font-family="Times,serif" font-size="14.00">dash_charts.pareto_chart</text>
</g>
<!-- dash_charts.pareto_chart&#45;&gt;dash_charts.utils_data -->
<g id="edge17" class="edge">
<title>dash_charts.pareto_chart&#45;&gt;dash_charts.utils_data</title>
<path fill="none" stroke="black" d="M1717.91,-108.13C1669.68,-133.88 1578.5,-182.55 1525.35,-210.93"/>
<polygon fill="black" stroke="black" points="1516.2,-215.81 1522.9,-207.13 1520.61,-213.46 1525.02,-211.1 1525.02,-211.1 1525.02,-211.1 1520.61,-213.46 1527.14,-215.07 1516.2,-215.81 1516.2,-215.81"/>
</g>
<!-- dash_charts.pareto_chart&#45;&gt;dash_charts.utils_fig -->
<g id="edge18" class="edge">
<title>dash_charts.pareto_chart&#45;&gt;dash_charts.utils_fig</title>
<path fill="none" stroke="black" d="M1673.58,-106.19C1670.35,-106.8 1667.14,-107.41 1664,-108 1587.59,-122.32 1499.99,-137.73 1439.45,-148.22"/>
<polygon fill="black" stroke="black" points="1429.23,-149.99 1438.31,-143.85 1434.15,-149.14 1439.08,-148.29 1439.08,-148.29 1439.08,-148.29 1434.15,-149.14 1439.85,-152.72 1429.23,-149.99 1429.23,-149.99"/>
</g>
<!-- dash_charts.scatter_line_charts -->
<g id="node12" class="node">
<title>dash_charts.scatter_line_charts</title>
<polygon fill="none" stroke="black" points="1655.5,-108 1470.5,-108 1470.5,-72 1655.5,-72 1655.5,-108"/>
<text text-anchor="middle" x="1563" y="-86.3" font-family="Times,serif" font-size="14.00">dash_charts.scatter_line_charts</text>
</g>
<!-- dash_charts.scatter_line_charts&#45;&gt;dash_charts.utils_fig -->
<g id="edge19" class="edge">
<title>dash_charts.scatter_line_charts&#45;&gt;dash_charts.utils_fig</title>
<path fill="none" stroke="black" d="M1514.82,-108.03C1487.15,-117.81 1452.22,-130.16 1423.05,-140.48"/>
<polygon fill="black" stroke="black" points="1413.4,-143.89 1421.33,-136.31 1418.11,-142.22 1422.83,-140.56 1422.83,-140.56 1422.83,-140.56 1418.11,-142.22 1424.33,-144.8 1413.4,-143.89 1413.4,-143.89"/>
</g>
<!-- dash_charts.time_vis_chart -->
<g id="node13" class="node">
<title>dash_charts.time_vis_chart</title>
<polygon fill="none" stroke="black" points="1096.5,-108 931.5,-108 931.5,-72 1096.5,-72 1096.5,-108"/>
<text text-anchor="middle" x="1014" y="-86.3" font-family="Times,serif" font-size="14.00">dash_charts.time_vis_chart</text>
</g>
<!-- dash_charts.time_vis_chart&#45;&gt;dash_charts.utils_data -->
<g id="edge20" class="edge">
<title>dash_charts.time_vis_chart&#45;&gt;dash_charts.utils_data</title>
<path fill="none" stroke="black" d="M1051.54,-108.05C1095.68,-127.57 1171.47,-159.49 1239,-180 1293.72,-196.62 1356.81,-210.14 1405.27,-219.37"/>
<polygon fill="black" stroke="black" points="1415.38,-221.27 1404.72,-223.84 1410.46,-220.34 1405.55,-219.42 1405.55,-219.42 1405.55,-219.42 1410.46,-220.34 1406.38,-215 1415.38,-221.27 1415.38,-221.27"/>
</g>
<!-- dash_charts.time_vis_chart&#45;&gt;dash_charts.utils_fig -->
<g id="edge21" class="edge">
<title>dash_charts.time_vis_chart&#45;&gt;dash_charts.utils_fig</title>
<path fill="none" stroke="black" d="M1096.74,-107.5C1155.63,-119.24 1234.07,-134.89 1290.91,-146.22"/>
<polygon fill="black" stroke="black" points="1300.91,-148.22 1290.22,-150.67 1296,-147.24 1291.1,-146.26 1291.1,-146.26 1291.1,-146.26 1296,-147.24 1291.98,-141.85 1300.91,-148.22 1300.91,-148.22"/>
</g>
<!-- dash_charts.utils_app&#45;&gt;dash_charts.utils_callbacks -->
<g id="edge22" class="edge">
<title>dash_charts.utils_app&#45;&gt;dash_charts.utils_callbacks</title>
<path fill="none" stroke="black" d="M202.57,-180.12C226.56,-189.78 256.73,-201.91 282.1,-212.12"/>
<polygon fill="black" stroke="black" points="291.57,-215.93 280.62,-216.37 286.93,-214.07 282.3,-212.2 282.3,-212.2 282.3,-212.2 286.93,-214.07 283.98,-208.02 291.57,-215.93 291.57,-215.93"/>
</g>
<!-- dash_charts.utils_app_with_navigation&#45;&gt;dash_charts.utils_app -->
<g id="edge23" class="edge">
<title>dash_charts.utils_app_with_navigation&#45;&gt;dash_charts.utils_app</title>
<path fill="none" stroke="black" d="M160,-108.3C160,-116.02 160,-125.29 160,-133.89"/>
<polygon fill="black" stroke="black" points="160,-143.9 155.5,-133.9 160,-138.9 160,-133.9 160,-133.9 160,-133.9 160,-138.9 164.5,-133.9 160,-143.9 160,-143.9"/>
</g>
<!-- dash_charts.utils_dataset&#45;&gt;dash_charts.utils_data -->
<g id="edge24" class="edge">
<title>dash_charts.utils_dataset&#45;&gt;dash_charts.utils_data</title>
<path fill="none" stroke="black" d="M1777.78,-177.42C1714.93,-189.31 1626.1,-206.12 1562.6,-218.13"/>
<polygon fill="black" stroke="black" points="1552.63,-220.02 1561.62,-213.73 1557.55,-219.09 1562.46,-218.16 1562.46,-218.16 1562.46,-218.16 1557.55,-219.09 1563.3,-222.58 1552.63,-220.02 1552.63,-220.02"/>
</g>
<!-- dash_charts.utils_fig&#45;&gt;dash_charts.utils_data -->
<g id="edge25" class="edge">
<title>dash_charts.utils_fig&#45;&gt;dash_charts.utils_data</title>
<path fill="none" stroke="black" d="M1394.11,-180.12C1409.67,-189.28 1429.02,-200.66 1445.78,-210.52"/>
<polygon fill="black" stroke="black" points="1454.78,-215.81 1443.88,-214.62 1450.47,-213.28 1446.16,-210.74 1446.16,-210.74 1446.16,-210.74 1450.47,-213.28 1448.44,-206.86 1454.78,-215.81 1454.78,-215.81"/>
</g>
<!-- dash_charts.utils_helpers -->
<g id="node21" class="node">
<title>dash_charts.utils_helpers</title>
<polygon fill="none" stroke="black" points="2000.5,-36 1847.5,-36 1847.5,0 2000.5,0 2000.5,-36"/>
<text text-anchor="middle" x="1924" y="-14.3" font-family="Times,serif" font-size="14.00">dash_charts.utils_helpers</text>
</g>
<!-- dash_charts.utils_json_cache&#45;&gt;dash_charts.utils_data -->
<g id="edge26" class="edge">
<title>dash_charts.utils_json_cache&#45;&gt;dash_charts.utils_data</title>
<path fill="none" stroke="black" d="M1968.44,-108.12C1966.77,-128.64 1960.67,-162.45 1939,-180 1882.91,-225.43 1677.6,-233.08 1562.88,-233.69"/>
<polygon fill="black" stroke="black" points="1552.75,-233.72 1562.74,-229.19 1557.75,-233.71 1562.75,-233.69 1562.75,-233.69 1562.75,-233.69 1557.75,-233.71 1562.77,-238.19 1552.75,-233.72 1552.75,-233.72"/>
</g>
<!-- dash_charts.utils_json_cache&#45;&gt;dash_charts.utils_dataset -->
<g id="edge27" class="edge">
<title>dash_charts.utils_json_cache&#45;&gt;dash_charts.utils_dataset</title>
<path fill="none" stroke="black" d="M1940.87,-108.12C1925.83,-117.28 1907.13,-128.66 1890.94,-138.52"/>
<polygon fill="black" stroke="black" points="1882.24,-143.81 1888.44,-134.77 1886.51,-141.21 1890.78,-138.61 1890.78,-138.61 1890.78,-138.61 1886.51,-141.21 1893.12,-142.45 1882.24,-143.81 1882.24,-143.81"/>
</g>
<!-- dash_charts.utils_static -->
<g id="node23" class="node">
<title>dash_charts.utils_static</title>
<polygon fill="none" stroke="black" points="2161.5,-36 2018.5,-36 2018.5,0 2161.5,0 2161.5,-36"/>
<text text-anchor="middle" x="2090" y="-14.3" font-family="Times,serif" font-size="14.00">dash_charts.utils_static</text>
</g>
<!-- dash_charts.utils_static_toc -->
<g id="node24" class="node">
<title>dash_charts.utils_static_toc</title>
<polygon fill="none" stroke="black" points="2346,-36 2180,-36 2180,0 2346,0 2346,-36"/>
<text text-anchor="middle" x="2263" y="-14.3" font-family="Times,serif" font-size="14.00">dash_charts.utils_static_toc</text>
</g>
</g>
</svg>
